HIERARCHY
ROOT hip
{
	OFFSET 0.000000 0.000000 0.000000 
	CHANNELS 6 Xposition Yposition Zposition Xrotation Zrotation Yrotation
	JOINT abdomen
	{
		OFFSET 0.000000 3.402643 0.000000 
		CHANNELS 3 Xrotation Zrotation Yrotation
		JOINT chest
		{
			OFFSET 0.000000 8.438565 -0.680529 
			CHANNELS 3 Xrotation Zrotation Yrotation
			JOINT neck
			{
				OFFSET 0.000000 10.207942 -0.272212 
				CHANNELS 3 Xrotation Zrotation Yrotation
				JOINT head
				{
					OFFSET 0.000000 3.130431 0.000000 
					CHANNELS 3 Xrotation Zrotation Yrotation
					End Site
					{
						OFFSET 0.000000 3.130435 0.000000 
					}
				}
			}
			JOINT lCollar
			{
				OFFSET 3.470700 6.669187 -0.816635 
				CHANNELS 3 Yrotation Zrotation Xrotation
				JOINT lShldr
				{
					OFFSET 3.198488 0.000000 0.000000 
					CHANNELS 3 Zrotation Yrotation Xrotation
					JOINT lForeArm
					{
						OFFSET 10.139888 0.000000 0.000000 
						CHANNELS 3 Yrotation Zrotation Xrotation
						JOINT lHand
						{
							OFFSET 8.370511 0.000000 0.000000 
							CHANNELS 3 Zrotation Yrotation Xrotation
							End Site
							{
								OFFSET 4.083176 0.000000 0.000000 
							}
						}
					}
				}
			}
			JOINT rCollar
			{
				OFFSET -3.470700 6.669187 -0.816635 
				CHANNELS 3 Yrotation Zrotation Xrotation
				JOINT rShldr
				{
					OFFSET -3.198488 0.000000 0.000000 
					CHANNELS 3 Zrotation Yrotation Xrotation
					JOINT rForeArm
					{
						OFFSET -10.139888 0.000000 0.000000 
						CHANNELS 3 Yrotation Zrotation Xrotation
						JOINT rHand
						{
							OFFSET -8.370511 0.000000 0.000000 
							CHANNELS 3 Zrotation Yrotation Xrotation
							End Site
							{
								OFFSET -4.083176 0.000000 0.000000 
							}
						}
					}
				}
			}
		}
	}
	JOINT lThigh
	{
		OFFSET 5.308129 -1.633274 1.361059 
		CHANNELS 3 Xrotation Zrotation Yrotation
		JOINT lShin
		{
			OFFSET -2.041588 -20.007561 0.000000 
			CHANNELS 3 Xrotation Zrotation Yrotation
			JOINT lFoot
			{
				OFFSET 0.000000 -19.190928 -1.224953 
				CHANNELS 3 Xrotation Yrotation Zrotation
				End Site
				{
					OFFSET 0.000000 -2.449906 4.627600 
				}
			}
		}
	}
	JOINT rThigh
	{
		OFFSET -5.308129 -1.633274 1.361059 
		CHANNELS 3 Xrotation Zrotation Yrotation
		JOINT rShin
		{
			OFFSET 2.041588 -20.007561 0.000000 
			CHANNELS 3 Xrotation Zrotation Yrotation
			JOINT rFoot
			{
				OFFSET 0.000000 -19.190928 -1.224953 
				CHANNELS 3 Xrotation Yrotation Zrotation
				End Site
				{
					OFFSET 0.000000 -2.449906 4.627600 
				}
			}
		}
	}
}
MOTION
Frames: 14
Frame Time: 0.066667
-0.505149 53.183353 -1.608709 0.000000 0.000000 0.000000 9.300912 -0.340053 -0.360964 3.230633 2.709042 0.053064 -10.186749 0.461629 -0.068502 -0.995758 1.221854 4.930270 2.021920 -5.690310 11.936649 -70.100700 9.978770 15.991600 -22.515600 -9.303740 0.147736 5.969490 -0.173112 0.175734 3.364196 7.678784 7.863078 41.645687 61.927467 -10.255177 138.433197 17.349100 -19.208958 -46.481037 3.309900 1.085632 -11.420290 4.792654 0.191220 18.931450 -3.503814 -1.113325 -7.762022 0.889428 -1.385084 -11.336435 -3.802228 0.028873 18.713469 3.480853 0.909999 -7.753586 -1.619597 0.154175 
-0.505149 53.183353 -1.608709 0.000000 0.000000 0.000000 9.300912 -0.340053 -0.360964 3.230633 2.709042 0.053064 -10.186749 0.461629 -0.068502 -3.842178 1.818611 4.872035 2.021920 -5.690310 11.936649 -70.100700 9.978770 15.991600 -22.515600 -9.303740 0.147736 5.969490 -0.173112 0.175734 3.364196 7.678784 7.863078 40.005600 62.544498 -11.634567 138.802887 17.033772 -19.396206 -45.260201 2.095987 1.015223 -11.420290 4.792654 0.191220 18.931450 -3.503814 -1.113325 -7.762022 0.889428 -1.385084 -11.336435 -3.802228 0.028873 18.713469 3.480853 0.909999 -7.753586 -1.619597 0.154175 
-0.505149 53.183353 -1.608709 0.000000 0.000000 0.000000 9.300912 -0.340053 -0.360964 3.230633 2.709042 0.053064 -10.186749 0.461629 -0.068502 -5.462465 1.448667 4.901881 2.021920 -5.690310 11.936649 -70.100700 9.978770 15.991600 -22.515600 -9.303740 0.147736 5.969490 -0.173112 0.175734 3.364196 7.678784 7.863078 38.090145 63.679996 -13.239309 139.636948 16.420464 -19.763336 -44.043228 0.885919 0.945037 -11.420290 4.792654 0.191220 18.931450 -3.503814 -1.113325 -7.762022 0.889428 -1.385084 -11.336435 -3.802228 0.028873 18.713469 3.480853 0.909999 -7.753586 -1.619597 0.154175 
-0.505149 53.183353 -1.608709 0.000000 0.000000 0.000000 9.300912 -0.340053 -0.360964 3.230633 2.709042 0.053064 -10.186749 0.461629 -0.068502 -4.584460 -0.630154 5.075640 2.021920 -5.690310 11.936649 -70.100700 9.978770 15.991600 -22.515600 -9.303740 0.147736 5.969490 -0.173112 0.175734 3.364196 7.678784 7.863078 36.062111 64.966202 -14.937102 140.709778 15.652859 -20.223576 -42.833775 -0.316684 0.875284 -11.420290 4.792654 0.191220 18.931450 -3.503814 -1.113325 -7.762022 0.889428 -1.385084 -11.336435 -3.802228 0.028873 18.713469 3.480853 0.909999 -7.753586 -1.619597 0.154175 
-0.505149 53.183353 -1.608709 0.000000 0.000000 0.000000 9.300912 -0.340053 -0.360964 3.230633 2.709042 0.053064 -10.186749 0.461629 -0.068502 -1.580242 -3.531769 5.251950 2.021920 -5.690310 11.936649 -70.100700 9.978770 15.991600 -22.515600 -9.303740 0.147736 5.969490 -0.173112 0.175734 3.364196 7.678784 7.863078 34.084282 66.035347 -16.595644 141.795715 14.874627 -20.690138 -41.635563 -1.508104 0.806179 -11.420290 4.792654 0.191220 18.931450 -3.503814 -1.113325 -7.762022 0.889428 -1.385084 -11.336435 -3.802228 0.028873 18.713469 3.480853 0.909999 -7.753586 -1.619597 0.154175 
-0.505149 53.183353 -1.608709 0.000000 0.000000 0.000000 9.300912 -0.340053 -0.360964 3.230633 2.709042 0.053064 -10.186749 0.461629 -0.068502 2.767058 -5.963030 5.240150 2.021920 -5.690310 11.936649 -70.100700 9.978770 15.991600 -22.515600 -9.303740 0.147736 5.969490 -0.173112 0.175734 3.364196 7.678784 7.863078 32.319454 66.519684 -18.082638 142.669128 14.229445 -21.076246 -40.452511 -2.684456 0.737949 -11.420290 4.792654 0.191220 18.931450 -3.503814 -1.113325 -7.762022 0.889428 -1.385084 -11.336435 -3.802228 0.028873 18.713469 3.480853 0.909999 -7.753586 -1.619597 0.154175 
-0.505149 53.183353 -1.608709 0.000000 0.000000 0.000000 9.300912 -0.340053 -0.360964 3.230633 2.709042 0.053064 -10.186749 0.461629 -0.068502 7.671793 -6.932771 4.912903 2.021920 -5.690310 11.936649 -70.100700 9.978770 15.991600 -22.515600 -9.303740 0.147736 5.969490 -0.173112 0.175734 3.364196 7.678784 7.863078 30.930428 66.051460 -19.265783 143.104431 13.860988 -21.295128 -39.288803 -3.841572 0.670834 -11.420290 4.792654 0.191220 18.931450 -3.503814 -1.113325 -7.762022 0.889428 -1.385084 -11.336435 -3.802228 0.028873 18.713469 3.480853 0.909999 -7.753586 -1.619597 0.154175 
-0.505149 53.183353 -1.608709 0.000000 0.000000 0.000000 9.300912 -0.340053 -0.360964 3.230633 2.709042 0.053064 -10.186749 0.461629 -0.068502 12.338262 -6.657764 4.396184 2.021920 -5.690310 11.936649 -70.100700 9.978770 15.991600 -22.515600 -9.303740 0.147736 5.969490 -0.173112 0.175734 3.364196 7.678784 7.863078 30.079994 64.262917 -20.012777 142.875992 13.912931 -21.260004 -38.149094 -4.974819 0.605104 -11.420290 4.792654 0.191220 18.931450 -3.503814 -1.113325 -7.762022 0.889428 -1.385084 -11.336435 -3.802228 0.028873 18.713469 3.480853 0.909999 -7.753586 -1.619597 0.154175 
-0.505149 53.183353 -1.608709 0.000000 0.000000 0.000000 9.300912 -0.340053 -0.360964 3.230633 2.709042 0.053064 -10.186749 0.461629 -0.068502 15.968238 -5.656765 3.879296 2.021920 -5.690310 11.936649 -70.100700 9.978770 15.991600 -22.515600 -9.303740 0.147736 5.969490 -0.173112 0.175734 3.364196 7.678784 7.863078 29.930943 60.786301 -20.191319 141.758179 14.528949 -20.884096 -37.038811 -6.078808 0.541070 -11.420290 4.792654 0.191220 18.931450 -3.503814 -1.113325 -7.762022 0.889428 -1.385084 -11.336435 -3.802228 0.028873 18.713469 3.480853 0.909999 -7.753586 -1.619597 0.154175 
-0.505149 53.183353 -1.608709 0.000000 0.000000 0.000000 9.300912 -0.340053 -0.360964 3.230633 2.709042 0.053064 -10.186749 0.461629 -0.068502 17.763510 -4.448527 3.551540 2.021920 -5.690310 11.936649 -70.100700 9.978770 15.991600 -22.515600 -9.303740 0.147736 5.969490 -0.173112 0.175734 3.364196 7.678784 7.863078 30.646065 55.253860 -19.669109 139.525375 15.852716 -20.080624 -35.964661 -7.146868 0.479121 -11.420290 4.792654 0.191220 18.931450 -3.503814 -1.113325 -7.762022 0.889428 -1.385084 -11.336435 -3.802228 0.028873 18.713469 3.480853 0.909999 -7.753586 -1.619597 0.154175 
-0.505149 53.183353 -1.608709 0.000000 0.000000 0.000000 9.300912 -0.340053 -0.360964 3.230633 2.709042 0.053064 -10.186749 0.461629 -0.068502 17.225483 -3.528482 3.537304 2.021920 -5.690310 11.936649 -70.100700 9.978770 15.991600 -22.515600 -9.303740 0.147736 5.969490 -0.173112 0.175734 3.364196 7.678784 7.863078 32.089737 48.319950 -18.551126 135.951965 18.027906 -18.762810 -34.935707 -8.169991 0.419778 -11.420290 4.792654 0.191220 18.931450 -3.503814 -1.113325 -7.762022 0.889428 -1.385084 -11.336435 -3.802228 0.028873 18.713469 3.480853 0.909999 -7.753586 -1.619597 0.154175 
-0.505149 53.183353 -1.608709 0.000000 0.000000 0.000000 9.300912 -0.340053 -0.360964 3.230633 2.709042 0.053064 -10.186749 0.461629 -0.068502 15.054075 -3.298749 3.701316 2.021920 -5.690310 11.936649 -70.100700 9.978770 15.991600 -22.515600 -9.303740 0.147736 5.969490 -0.173112 0.175734 3.364196 7.678784 7.863078 32.932671 44.727524 -17.891491 130.812271 21.198193 -16.843870 -33.965797 -9.134408 0.363840 -11.420290 4.792654 0.191220 18.931450 -3.503814 -1.113325 -7.762022 0.889428 -1.385084 -11.336435 -3.802228 0.028873 18.713469 3.480853 0.909999 -7.753586 -1.619597 0.154175 
-0.505149 53.183353 -1.608709 0.000000 0.000000 0.000000 9.300912 -0.340053 -0.360964 3.230633 2.709042 0.053064 -10.186749 0.461629 -0.068502 12.244027 -3.919788 3.874622 2.021920 -5.690310 11.936649 -70.100700 9.978770 15.991600 -22.515600 -9.303740 0.147736 5.969490 -0.173112 0.175734 3.364196 7.678784 7.863078 32.932671 44.727524 -17.891491 124.333817 25.221931 -14.409498 -33.081146 -10.014050 0.312819 -11.420290 4.792654 0.191220 18.931450 -3.503814 -1.113325 -7.762022 0.889428 -1.385084 -11.336435 -3.802228 0.028873 18.713469 3.480853 0.909999 -7.753586 -1.619597 0.154175 
-0.505149 53.183353 -1.608709 0.000000 0.000000 0.000000 9.300912 -0.340053 -0.360964 3.230633 2.709042 0.053064 -10.186749 0.461629 -0.068502 9.770823 -4.678731 4.013203 2.021920 -5.690310 11.936649 -70.100700 9.978770 15.991600 -22.515600 -9.303740 0.147736 5.969490 -0.173112 0.175734 3.364196 7.678784 7.863078 32.932671 44.727524 -17.891491 118.556374 28.816183 -12.235213 -32.364365 -10.726770 0.271479 -11.420290 4.792654 0.191220 18.931450 -3.503814 -1.113325 -7.762022 0.889428 -1.385084 -11.336435 -3.802228 0.028873 18.713469 3.480853 0.909999 -7.753586 -1.619597 0.154175 
